<?xml version="1.0" standalone="no"?>
<!DOCTYPE svg PUBLIC "-//W3C//DTD SVG 20010904//EN"
 "http://www.w3.org/TR/2001/REC-SVG-20010904/DTD/svg10.dtd">
<svg version="1.0" xmlns="http://www.w3.org/2000/svg"
 width="1080.000000pt" height="1080.000000pt" viewBox="0 0 1080.000000 1080.000000"
 preserveAspectRatio="xMidYMid meet">

<g transform="translate(0.000000,1080.000000) scale(0.100000,-0.100000)"
fill="#000000" stroke="none">
<path d="M3449 9120 c-131 -11 -319 -50 -419 -86 -411 -147 -735 -482 -884
-913 -130 -373 -118 -817 28 -1127 127 -267 208 -348 871 -870 286 -224 544
-428 573 -451 l53 -43 500 0 c285 0 498 4 495 9 -3 5 -173 141 -378 302 -682
539 -823 651 -826 658 -5 15 120 174 189 243 301 297 643 417 1334 468 77 5
159 10 183 10 l42 0 0 -845 0 -845 245 0 245 0 0 846 0 845 858 -4 c818 -3
863 -4 987 -25 246 -40 430 -98 628 -199 503 -256 852 -692 1037 -1293 95
-313 135 -668 119 -1065 -20 -475 -138 -907 -340 -1243 -358 -595 -899 -933
-1584 -992 -68 -5 -461 -10 -912 -10 l-793 0 0 1330 0 1330 -244 0 -245 0 -3
-42 -3 -42 -28 42 -27 42 -435 0 -436 0 79 -69 c194 -171 368 -405 467 -627
134 -301 185 -566 155 -814 -28 -244 -87 -447 -181 -630 -145 -280 -358 -485
-665 -639 -201 -101 -400 -158 -632 -182 -166 -17 -490 -7 -612 20 -173 37
-318 91 -454 168 -450 255 -709 590 -808 1045 -25 120 -36 433 -19 575 42 350
161 662 368 971 l84 125 -33 28 c-18 15 -36 28 -40 29 -21 1 -197 -215 -288
-352 -153 -230 -278 -577 -320 -886 -20 -143 -7 -372 29 -552 108 -528 380
-926 812 -1191 374 -228 800 -331 1309 -316 487 14 875 124 1204 341 l98 65
1332 4 c1437 4 1358 1 1673 58 411 73 828 263 1148 522 104 84 252 230 341
337 386 463 574 1029 574 1730 0 747 -235 1364 -700 1844 -337 347 -770 582
-1303 706 -337 78 -557 91 -1742 106 -878 10 -1349 -20 -1787 -116 -442 -97
-753 -317 -959 -678 -32 -56 -56 -89 -63 -85 -53 32 -447 354 -503 411 -215
218 -310 498 -275 811 28 252 117 451 276 618 232 245 532 353 898 323 262
-22 448 -92 631 -237 179 -143 293 -364 313 -605 l7 -78 44 0 45 0 -7 548 c-4
301 -9 550 -12 555 -2 4 -85 7 -183 7 -153 0 -205 4 -352 29 -294 50 -570 68
-779 51z"/>
<path d="M2076 5479 c-46 -36 -29 -84 39 -106 20 -6 30 -16 30 -29 0 -27 -40
-30 -61 -6 -18 21 -44 19 -44 -3 0 -24 36 -45 78 -45 51 0 74 21 70 64 -3 26
-9 33 -48 47 -49 18 -62 42 -32 58 14 7 24 6 38 -4 41 -31 60 -11 24 25 -26
26 -60 25 -94 -1z"/>
<path d="M2507 5493 c-3 -5 -17 -37 -32 -73 -15 -36 -34 -80 -42 -97 -12 -30
-12 -33 5 -33 10 0 24 11 30 25 10 21 19 25 52 25 33 0 42 -4 52 -25 11 -25
55 -37 45 -12 -60 151 -81 197 -92 197 -8 0 -16 -3 -18 -7z m39 -120 c-2 -3
-15 -3 -29 -1 -25 3 -25 4 -11 38 l15 35 15 -34 c8 -19 12 -36 10 -38z"/>
<path d="M2866 5493 c-3 -3 -6 -51 -6 -105 0 -91 1 -98 20 -98 17 0 20 7 20
40 0 22 3 40 8 40 4 -1 19 -19 34 -40 22 -32 34 -40 58 -40 20 0 30 5 30 15 0
8 -9 15 -19 15 -11 0 -28 12 -39 27 l-20 27 22 11 c30 15 35 79 7 95 -25 13
-105 22 -115 13z m98 -48 c7 -18 -19 -45 -45 -45 -14 0 -19 7 -19 30 0 26 3
30 29 30 16 0 31 -6 35 -15z"/>
<path d="M3240 5478 c0 -13 7 -18 30 -18 l30 0 0 -85 c0 -78 2 -85 20 -85 18
0 20 7 20 85 l0 85 36 0 c28 0 35 3 32 18 -3 14 -16 17 -86 18 -73 1 -82 -1
-82 -18z"/>
<path d="M3650 5395 c0 -85 3 -105 14 -105 10 0 16 14 18 43 l3 42 48 3 47 3
0 -45 c0 -40 3 -46 20 -46 20 0 21 5 18 102 -3 89 -5 103 -20 106 -15 3 -18
-4 -18 -42 l0 -46 -50 0 -50 0 0 45 c0 33 -4 45 -15 45 -12 0 -15 -18 -15
-105z"/>
<path d="M4143 5488 c-12 -15 -83 -177 -83 -190 0 -21 38 -6 44 17 6 22 12 25
51 25 39 0 47 -3 55 -25 10 -25 40 -35 40 -12 -1 22 -76 191 -87 194 -5 2 -15
-2 -20 -9z m35 -90 c11 -27 10 -28 -18 -28 -17 0 -30 2 -30 4 0 1 5 18 11 35
12 34 18 33 37 -11z"/>
<path d="M4500 5395 c0 -87 3 -105 15 -105 11 0 15 11 15 40 0 22 4 40 9 40 4
0 20 -18 35 -40 21 -32 32 -40 56 -40 20 0 30 5 30 15 0 8 -8 15 -19 15 -10 0
-29 17 -44 38 l-25 39 46 46 c39 39 43 47 28 53 -13 5 -31 -7 -67 -42 l-49
-48 0 47 c0 35 -4 47 -15 47 -12 0 -15 -18 -15 -105z"/>
<path d="M5190 5396 l0 -106 50 0 c83 0 130 38 130 105 0 63 -34 91 -125 101
l-55 7 0 -107z m120 44 c20 -20 26 -65 12 -87 -8 -13 -55 -33 -78 -33 -11 0
-14 16 -14 70 l0 70 30 0 c17 0 39 -9 50 -20z"/>
<path d="M5627 5494 c-4 -4 -7 -52 -7 -106 l0 -98 70 0 c56 0 70 3 70 15 0 11
-12 15 -50 15 -49 0 -50 1 -50 30 0 29 2 30 45 30 33 0 45 4 45 15 0 11 -12
15 -45 15 -41 0 -45 2 -45 25 0 23 3 25 51 25 43 0 50 3 47 18 -3 13 -15 18
-64 20 -33 2 -63 0 -67 -4z"/>
<path d="M6025 5475 c-41 -41 -27 -76 40 -99 27 -10 40 -20 40 -33 0 -26 -49
-30 -71 -5 -16 19 -44 20 -44 1 0 -5 9 -18 20 -29 39 -39 140 -16 140 33 0 24
-30 55 -59 62 -33 7 -56 29 -46 45 8 13 52 13 60 0 9 -15 35 -12 35 4 0 20
-39 46 -68 46 -12 0 -34 -11 -47 -25z"/>
<path d="M6397 5493 c-4 -3 -7 -51 -7 -105 0 -91 1 -98 20 -98 17 0 20 7 20
46 l0 45 48 -3 47 -3 3 -42 c3 -35 7 -43 23 -43 19 0 20 6 17 102 -3 89 -5
103 -20 106 -15 3 -18 -4 -18 -42 l0 -46 -50 0 -50 0 0 45 c0 43 -14 58 -33
38z"/>
<path d="M6835 5488 c-2 -7 -5 -55 -7 -106 -3 -81 -1 -92 14 -92 14 0 18 11
20 58 l3 57 30 -57 c17 -34 36 -58 45 -58 10 0 25 21 40 58 22 52 25 55 31 32
4 -14 7 -40 8 -57 1 -23 6 -33 16 -33 13 0 15 16 13 103 -4 128 -18 134 -67
30 -19 -40 -37 -73 -41 -73 -3 0 -22 34 -43 75 -35 72 -53 89 -62 63z"/>
<path d="M7317 5493 c-11 -10 -8 -104 3 -145 6 -21 19 -42 30 -48 30 -16 86
-12 111 9 21 17 24 29 28 106 3 80 2 87 -15 83 -16 -3 -20 -15 -24 -81 -5 -79
-14 -97 -52 -97 -31 0 -48 40 -48 112 0 50 -4 68 -13 68 -8 0 -17 -3 -20 -7z"/>
<path d="M7757 5494 c-4 -4 -7 -52 -7 -106 0 -91 1 -98 20 -98 17 0 20 7 20
43 l0 42 36 -42 c27 -33 43 -43 65 -43 34 0 38 17 7 29 -22 9 -68 62 -68 79 0
4 18 26 40 47 45 44 50 56 20 52 -11 -2 -37 -23 -57 -47 l-38 -44 -5 44 c-5
41 -18 59 -33 44z"/>
<path d="M8157 5494 c-4 -4 -7 -52 -7 -106 0 -91 1 -98 20 -98 17 0 20 7 20
45 l0 45 45 0 45 0 1 -37 c1 -21 1 -41 0 -45 0 -5 8 -8 19 -8 19 0 20 7 20
106 0 95 -2 105 -17 102 -13 -2 -19 -15 -21 -46 l-3 -42 -44 0 -44 0 -3 42
c-3 39 -16 57 -31 42z"/>
</g>
</svg>
